<svg width="932.086865234375px" height="197.6px" xmlns="http://www.w3.org/2000/svg" viewBox="-216.04343261718748 -23.799999999999997 932.086865234375 197.6" style="background:#e00" preserveAspectRatio="xMidYMid"><defs><filter id="editing-lego" x="-100%" y="-100%" width="300%" height="300%"><feFlood flood-color="#000" result="f1"></feFlood><feFlood flood-color="#ff0" result="f2"></feFlood><feMorphology operator="dilate" radius="3" in="SourceAlpha"></feMorphology><feConvolveMatrix order="5,5" divisor="1" result="cm1" kernelMatrix="0 1 1 1 0  1 0 0 0 1  1 0 0 0 1  1 0 0 0 1  0 1 1 1 0"></feConvolveMatrix><feComposite operator="in" in="f1" in2="cm1" result="c1"></feComposite><feMorphology operator="dilate" radius="3"></feMorphology><feConvolveMatrix order="5,5" divisor="1" result="cm2" kernelMatrix="0 1 1 1 0  1 0 0 0 1  1 0 0 0 1  1 0 0 0 1  0 1 1 1 0"></feConvolveMatrix><feComposite operator="in" in="f2" in2="cm2" result="c2"></feComposite><feMerge><feMergeNode in="c2"></feMergeNode><feMergeNode in="c1"></feMergeNode><feMergeNode in="SourceGraphic"></feMergeNode></feMerge></filter></defs><g filter="url(#editing-lego)"><g transform="translate(-85.48494529724121, 128.30080032348633)"><path d="M6.97-69.58L6.97-69.58L6.97-69.58Q6.97-71.55 9.36-73.63L9.36-73.63L9.36-73.63Q11.75-75.71 14.35-75.71L14.35-75.71L14.35-75.71Q16.95-75.71 18.82-73.37L18.82-73.37L18.82-73.37Q20.70-71.03 20.70-68.64L20.70-68.64L20.70-68.64Q20.70-66.56 18.36-64.53L18.36-64.53L18.36-64.53Q16.02-62.50 13.31-62.50L13.31-62.50L13.31-62.50Q10.92-62.50 8.94-64.84L8.94-64.84L8.94-64.84Q6.97-67.18 6.97-69.58ZM21.32-51.90L21.32-51.90L21.32-5.20L28.29-3.12L28.29-3.12Q28.60-1.14 27.77 0.52L27.77 0.52L27.77 0.52Q18.41 0 16.12 0L16.12 0L16.12 0Q13.00 0 3.43 0.52L3.43 0.52L3.43 0.52Q3.12-1.46 3.64-3.12L3.64-3.12L3.64-3.12Q9.46-4.47 10.92-5.20L10.92-5.20L10.92-45.76L2.29-46.59L2.29-46.59Q1.98-48.67 2.81-50.23L2.81-50.23L2.81-50.23Q11.44-51.48 17.37-53.04L17.37-53.04L17.37-53.04Q19.14-52.94 21.32-51.90ZM50.54-52.10L50.54-52.10L50.23-45.03L50.34-44.93L50.34-44.93Q58.66-53.46 68.85-53.66L68.85-53.66L68.85-53.66Q79.35-53.56 82.47-44.93L82.47-44.93L82.47-44.93Q90.27-53.77 100.05-53.66L100.05-53.66L100.05-53.66Q106.91-53.66 110.76-49.76L110.76-49.76L110.76-49.76Q114.61-45.86 114.61-38.58L114.61-38.58L114.71-5.20L121.99-3.12L121.99-3.12Q122.30-1.14 121.47 0.52L121.47 0.52L121.47 0.52Q112.11 0 109.51 0L109.51 0L109.51 0Q106.81 0 97.24 0.52L97.24 0.52L97.24 0.52Q96.93-1.46 97.45-3.12L97.45-3.12L97.45-3.12Q100.67-3.74 104.31-5.20L104.31-5.20L104.31-33.90L104.31-33.90Q104.31-40.77 102.18-43.47L102.18-43.47L102.18-43.47Q100.05-46.18 95.16-46.18L95.16-46.18L95.16-46.18Q89.23-46.07 83.41-39.42L83.41-39.42L83.51-5.20L90.79-3.12L90.79-3.12Q91.10-1.14 90.27 0.52L90.27 0.52L90.27 0.52Q81.64 0 78.31 0L78.31 0L78.31 0Q75.09 0 66.04 0.52L66.04 0.52L66.04 0.52Q65.73-1.46 66.25-3.12L66.25-3.12L66.25-3.12Q69.47-3.74 73.11-5.20L73.11-5.20L73.11-33.90L73.11-33.90Q73.11-40.77 70.98-43.58L70.98-43.58L70.98-43.58Q68.85-46.38 63.96-46.38L63.96-46.38L63.96-46.38Q58.24-46.28 51.06-40.14L51.06-40.14L51.06-5.20L58.03-3.12L58.03-3.12Q58.34-1.14 57.51 0.52L57.51 0.52L57.51 0.52Q49.19 0 45.86 0L45.86 0L45.86 0Q42.12 0 33.18 0.52L33.18 0.52L33.18 0.52Q32.86-1.46 33.38-3.12L33.38-3.12L33.38-3.12Q38.38-4.37 40.66-5.20L40.66-5.20L40.66-45.76L32.03-46.59L32.03-46.59Q31.72-48.67 32.55-50.23L32.55-50.23L32.55-50.23Q40.56-51.58 47.01-53.04L47.01-53.04L47.01-53.04Q48.78-52.94 50.54-52.10ZM136.34-12.48L136.34-12.48L136.34-12.48Q136.34-8.32 138.58-6.14L138.58-6.14L138.58-6.14Q140.82-3.95 144.66-3.95L144.66-3.95L144.66-3.95Q147.58-3.95 150.85-5.72L150.85-5.72L150.85-5.72Q154.13-7.49 155.79-9.88L155.79-9.88L155.79-23.92L155.79-23.92Q145.08-23.92 140.71-21.37L140.71-21.37L140.71-21.37Q136.34-18.82 136.34-12.48ZM165.98-32.97L165.98-32.97L165.98-5.10L165.98-5.10Q167.54-4.26 173.26-3.02L173.26-3.02L173.26-3.02Q173.58-1.04 172.74 0.62L172.74 0.62L172.74 0.62Q168.90 1.35 164.01 1.35L164.01 1.35L164.01 1.35Q160.58 1.35 158.08 0.73L158.08 0.73L156.62-4.68L156.21-4.68L156.21-4.68Q149.97 1.77 140.71 1.77L140.71 1.77L140.71 1.77Q134.06 1.77 130-1.72L130-1.72L130-1.72Q125.94-5.20 125.94-11.44L125.94-11.44L125.94-11.44Q126.05-28.60 155.79-28.08L155.79-28.08L155.90-37.23L155.90-37.23Q156-49.30 146.74-49.40L146.74-49.40L146.74-49.40Q141.23-49.40 136.97-47.84L136.97-47.84L135.62-36.82L135.62-36.82Q133.54-36.09 131.04-36.40L131.04-36.40L131.04-36.40Q128.86-44.30 128.96-49.92L128.96-49.92L128.96-49.92Q137.59-54.08 149.55-54.08L149.55-54.08L149.55-54.08Q158.50-54.18 162.24-49.50L162.24-49.50L162.24-49.50Q165.98-44.82 165.98-32.97ZM213.20-34.84L213.20-34.84L213.20-34.84Q213.20-41.18 209.82-44.88L209.82-44.88L209.82-44.88Q206.44-48.57 201.03-48.57L201.03-48.57L201.03-48.57Q195.62-48.57 192.24-44.88L192.24-44.88L192.24-44.88Q188.86-41.18 188.86-34.84L188.86-34.84L188.86-34.84Q188.86-28.91 192.30-25.12L192.30-25.12L192.30-25.12Q195.73-21.32 201.03-21.32L201.03-21.32L201.03-21.32Q206.34-21.32 209.77-25.12L209.77-25.12L209.77-25.12Q213.20-28.91 213.20-34.84ZM201.03-17.37L201.03-17.37L201.03-17.37Q196.87-17.37 193.13-18.51L193.13-18.51L193.13-18.51Q191.26-15.81 191.26-14.46L191.26-14.46L191.26-14.46Q191.26-13.31 191.98-12.48L191.98-12.48L191.98-12.48Q192.71-11.65 195.88-10.76L195.88-10.76L195.88-10.76Q199.06-9.88 206.02-9.05L206.02-9.05L206.02-9.05Q217.26-7.90 222.20-4.84L222.20-4.84L222.20-4.84Q227.14-1.77 227.14 5.72L227.14 5.72L227.14 5.72Q227.14 11.75 223.08 15.86L223.08 15.86L223.08 15.86Q219.02 19.97 213.10 21.74L213.10 21.74L213.10 21.74Q207.17 23.50 201.03 23.50L201.03 23.50L201.03 23.50Q189.80 23.50 184.18 19.60L184.18 19.60L184.18 19.60Q178.57 15.70 178.57 9.78L178.57 9.78L178.57 9.78Q178.57 0.42 188.34-3.64L188.34-3.64L188.34-3.64Q184.91-6.66 184.91-10.50L184.91-10.50L184.91-10.50Q184.91-15.91 189.18-19.97L189.18-19.97L189.18-19.97Q179.40-24.75 179.40-34.63L179.40-34.63L179.40-34.63Q179.50-43.68 186.00-48.15L186.00-48.15L186.00-48.15Q192.50-52.62 201.03-52.52L201.03-52.52L201.03-52.52Q206.86-52.52 211.43-50.65L211.43-50.65L225.26-59.18L225.26-59.18Q226.41-58.45 227.45-55.74L227.45-55.74L227.45-55.74Q228.49-53.04 228.18-51.58L228.18-51.58L228.18-51.58Q221.31-49.30 214.97-48.88L214.97-48.88L214.97-48.88Q222.66-44.20 222.66-34.63L222.66-34.63L222.66-34.63Q222.66-28.81 219.08-24.75L219.08-24.75L219.08-24.75Q215.49-20.70 210.60-19.03L210.60-19.03L210.60-19.03Q205.71-17.37 201.03-17.37ZM202.59-0.73L202.59-0.73L202.59-0.73Q201.76-0.83 199.78-1.09L199.78-1.09L199.78-1.09Q197.81-1.35 195.78-1.66L195.78-1.66L195.78-1.66Q193.75-1.98 192.09-2.39L192.09-2.39L192.09-2.39Q189.38-0.10 188.19 2.24L188.19 2.24L188.19 2.24Q186.99 4.58 186.99 8.32L186.99 8.32L186.99 8.32Q186.99 13.00 190.94 16.28L190.94 16.28L190.94 16.28Q194.90 19.55 201.55 19.55L201.55 19.55L201.55 19.55Q208.73 19.55 213.25 16.12L213.25 16.12L213.25 16.12Q217.78 12.69 217.78 8.42L217.78 8.42L217.78 8.42Q217.78 4.47 213.77 2.34L213.77 2.34L213.77 2.34Q209.77 0.21 202.59-0.73ZM274.98-27.77L243.57-28.08L243.57-26.00L243.57-26.00Q243.57-15.60 247.78-9.78L247.78-9.78L247.78-9.78Q251.99-3.95 259.27-3.95L259.27-3.95L259.27-3.95Q263.95-3.95 266.76-4.84L266.76-4.84L266.76-4.84Q269.57-5.72 273.83-8.63L273.83-8.63L273.83-8.63Q275.50-7.90 275.70-6.14L275.70-6.14L275.70-6.14Q268.53 1.66 258.96 1.77L258.96 1.77L258.96 1.77Q247.00 1.77 239.82-5.72L239.82-5.72L239.82-5.72Q232.65-13.21 232.54-26.00L232.54-26.00L232.54-26.00Q232.65-39.10 240.08-46.44L240.08-46.44L240.08-46.44Q247.52-53.77 258.44-53.77L258.44-53.77L258.44-53.77Q267.28-53.77 271.91-47.79L271.91-47.79L271.91-47.79Q276.54-41.81 276.54-31.62L276.54-31.62L276.54-31.62Q276.54-29.85 276.43-28.91L276.43-28.91L274.98-27.77ZM258.34-49.30L258.34-49.30L258.34-49.30Q253.45-49.30 249.34-44.88L249.34-44.88L249.34-44.88Q245.23-40.46 243.98-32.34L243.98-32.34L266.66-33.59L266.66-33.59Q266.66-41.91 264.84-45.60L264.84-45.60L264.84-45.60Q263.02-49.30 258.34-49.30ZM290.58-15.60L290.58-15.60L291.62-4.58L291.62-4.58Q295.05-2.70 301.08-2.70L301.08-2.70L301.08-2.70Q305.66-2.70 308.83-4.68L308.83-4.68L308.83-4.68Q312.00-6.66 312.00-10.61L312.00-10.61L312.00-10.61Q312.00-14.14 308.88-16.80L308.88-16.80L308.88-16.80Q305.76-19.45 298.17-22.98L298.17-22.98L298.17-22.98Q291.62-26.00 288.55-29.85L288.55-29.85L288.55-29.85Q285.48-33.70 285.48-39.73L285.48-39.73L285.48-39.73Q285.48-46.80 290.58-50.34L290.58-50.34L290.58-50.34Q295.67-53.87 303.89-53.87L303.89-53.87L303.89-53.87Q311.90-53.87 319.07-50.96L319.07-50.96L319.07-50.96Q319.07-50.54 319.12-49.82L319.12-49.82L319.12-49.82Q319.18-49.09 319.18-48.67L319.18-48.67L319.18-48.67Q319.18-42.54 317.20-36.71L317.20-36.71L317.20-36.71Q316.16-36.50 315.64-36.50L315.64-36.50L315.64-36.50Q314.08-36.50 312.52-37.13L312.52-37.13L310.86-48.36L310.86-48.36Q307.63-49.30 304.20-49.30L304.20-49.30L304.20-49.30Q299.94-49.30 297.08-47.53L297.08-47.53L297.08-47.53Q294.22-45.76 294.11-41.81L294.11-41.81L294.11-41.81Q294.11-38.27 296.71-35.78L296.71-35.78L296.71-35.78Q299.31-33.28 306.49-29.85L306.49-29.85L306.49-29.85Q314.91-25.79 318.24-22.15L318.24-22.15L318.24-22.15Q321.57-18.51 321.57-13.00L321.57-13.00L321.57-13.00Q321.57-5.93 316.11-1.92L316.11-1.92L316.11-1.92Q310.65 2.08 301.81 2.08L301.81 2.08L301.81 2.08Q290.89 2.29 284.23-2.08L284.23-2.08L284.23-3.85L284.23-3.85Q284.13-10.40 286.10-16.02L286.10-16.02L286.10-16.02Q286.73-16.12 287.14-16.12L287.14-16.12L287.14-16.12Q289.02-16.12 290.58-15.60ZM388.54-34.84L388.54-34.84L388.54-34.84Q388.54-41.18 385.16-44.88L385.16-44.88L385.16-44.88Q381.78-48.57 376.38-48.57L376.38-48.57L376.38-48.57Q370.97-48.57 367.59-44.88L367.59-44.88L367.59-44.88Q364.21-41.18 364.21-34.84L364.21-34.84L364.21-34.84Q364.21-28.91 367.64-25.12L367.64-25.12L367.64-25.12Q371.07-21.32 376.38-21.32L376.38-21.32L376.38-21.32Q381.68-21.32 385.11-25.12L385.11-25.12L385.11-25.12Q388.54-28.91 388.54-34.84ZM376.38-17.37L376.38-17.37L376.38-17.37Q372.22-17.37 368.47-18.51L368.47-18.51L368.47-18.51Q366.60-15.81 366.60-14.46L366.60-14.46L366.60-14.46Q366.60-13.31 367.33-12.48L367.33-12.48L367.33-12.48Q368.06-11.65 371.23-10.76L371.23-10.76L371.23-10.76Q374.40-9.88 381.37-9.05L381.37-9.05L381.37-9.05Q392.60-7.90 397.54-4.84L397.54-4.84L397.54-4.84Q402.48-1.77 402.48 5.72L402.48 5.72L402.48 5.72Q402.48 11.75 398.42 15.86L398.42 15.86L398.42 15.86Q394.37 19.97 388.44 21.74L388.44 21.74L388.44 21.74Q382.51 23.50 376.38 23.50L376.38 23.50L376.38 23.50Q365.14 23.50 359.53 19.60L359.53 19.60L359.53 19.60Q353.91 15.70 353.91 9.78L353.91 9.78L353.91 9.78Q353.91 0.42 363.69-3.64L363.69-3.64L363.69-3.64Q360.26-6.66 360.26-10.50L360.26-10.50L360.26-10.50Q360.26-15.91 364.52-19.97L364.52-19.97L364.52-19.97Q354.74-24.75 354.74-34.63L354.74-34.63L354.74-34.63Q354.85-43.68 361.35-48.15L361.35-48.15L361.35-48.15Q367.85-52.62 376.38-52.52L376.38-52.52L376.38-52.52Q382.20-52.52 386.78-50.65L386.78-50.65L400.61-59.18L400.61-59.18Q401.75-58.45 402.79-55.74L402.79-55.74L402.79-55.74Q403.83-53.04 403.52-51.58L403.52-51.58L403.52-51.58Q396.66-49.30 390.31-48.88L390.31-48.88L390.31-48.88Q398.01-44.20 398.01-34.63L398.01-34.63L398.01-34.63Q398.01-28.81 394.42-24.75L394.42-24.75L394.42-24.75Q390.83-20.70 385.94-19.03L385.94-19.03L385.94-19.03Q381.06-17.37 376.38-17.37ZM377.94-0.73L377.94-0.73L377.94-0.73Q377.10-0.83 375.13-1.09L375.13-1.09L375.13-1.09Q373.15-1.35 371.12-1.66L371.12-1.66L371.12-1.66Q369.10-1.98 367.43-2.39L367.43-2.39L367.43-2.39Q364.73-0.10 363.53 2.24L363.53 2.24L363.53 2.24Q362.34 4.58 362.34 8.32L362.34 8.32L362.34 8.32Q362.34 13.00 366.29 16.28L366.29 16.28L366.29 16.28Q370.24 19.55 376.90 19.55L376.90 19.55L376.90 19.55Q384.07 19.55 388.60 16.12L388.60 16.12L388.60 16.12Q393.12 12.69 393.12 8.42L393.12 8.42L393.12 8.42Q393.12 4.47 389.12 2.34L389.12 2.34L389.12 2.34Q385.11 0.21 377.94-0.73ZM417.56-12.48L417.56-12.48L417.56-12.48Q417.56-8.32 419.80-6.14L419.80-6.14L419.80-6.14Q422.03-3.95 425.88-3.95L425.88-3.95L425.88-3.95Q428.79-3.95 432.07-5.72L432.07-5.72L432.07-5.72Q435.34-7.49 437.01-9.88L437.01-9.88L437.01-23.92L437.01-23.92Q426.30-23.92 421.93-21.37L421.93-21.37L421.93-21.37Q417.56-18.82 417.56-12.48ZM447.20-32.97L447.20-32.97L447.20-5.10L447.20-5.10Q448.76-4.26 454.48-3.02L454.48-3.02L454.48-3.02Q454.79-1.04 453.96 0.62L453.96 0.62L453.96 0.62Q450.11 1.35 445.22 1.35L445.22 1.35L445.22 1.35Q441.79 1.35 439.30 0.73L439.30 0.73L437.84-4.68L437.42-4.68L437.42-4.68Q431.18 1.77 421.93 1.77L421.93 1.77L421.93 1.77Q415.27 1.77 411.22-1.72L411.22-1.72L411.22-1.72Q407.16-5.20 407.16-11.44L407.16-11.44L407.16-11.44Q407.26-28.60 437.01-28.08L437.01-28.08L437.11-37.23L437.11-37.23Q437.22-49.30 427.96-49.40L427.96-49.40L427.96-49.40Q422.45-49.40 418.18-47.84L418.18-47.84L416.83-36.82L416.83-36.82Q414.75-36.09 412.26-36.40L412.26-36.40L412.26-36.40Q410.07-44.30 410.18-49.92L410.18-49.92L410.18-49.92Q418.81-54.08 430.77-54.08L430.77-54.08L430.77-54.08Q439.71-54.18 443.46-49.50L443.46-49.50L443.46-49.50Q447.20-44.82 447.20-32.97ZM475.38-77.48L475.38-77.48L475.38-5.20L483.39-3.12L483.39-3.12Q483.70-1.14 482.87 0.52L482.87 0.52L482.87 0.52Q473.51 0 470.18 0L470.18 0L470.18 0Q467.17 0 457.50 0.52L457.50 0.52L457.50 0.52Q457.18-1.46 457.70-3.12L457.70-3.12L457.70-3.12Q463.53-4.58 464.98-5.20L464.98-5.20L464.98-71.34L456.35-72.18L456.35-72.18Q456.04-74.26 456.87-75.82L456.87-75.82L456.87-75.82Q465.50-77.06 471.43-78.62L471.43-78.62L471.43-78.62Q473.20-78.52 475.38-77.48ZM504.40-77.48L504.40-77.48L504.40-5.20L512.41-3.12L512.41-3.12Q512.72-1.14 511.89 0.52L511.89 0.52L511.89 0.52Q502.53 0 499.20 0L499.20 0L499.20 0Q496.18 0 486.51 0.52L486.51 0.52L486.51 0.52Q486.20-1.46 486.72-3.12L486.72-3.12L486.72-3.12Q492.54-4.58 494.00-5.20L494.00-5.20L494.00-71.34L485.37-72.18L485.37-72.18Q485.06-74.26 485.89-75.82L485.89-75.82L485.89-75.82Q494.52-77.06 500.45-78.62L500.45-78.62L500.45-78.62Q502.22-78.52 504.40-77.48ZM559.94-27.77L528.53-28.08L528.53-26.00L528.53-26.00Q528.53-15.60 532.74-9.78L532.74-9.78L532.74-9.78Q536.95-3.95 544.23-3.95L544.23-3.95L544.23-3.95Q548.91-3.95 551.72-4.84L551.72-4.84L551.72-4.84Q554.53-5.72 558.79-8.63L558.79-8.63L558.79-8.63Q560.46-7.90 560.66-6.14L560.66-6.14L560.66-6.14Q553.49 1.66 543.92 1.77L543.92 1.77L543.92 1.77Q531.96 1.77 524.78-5.72L524.78-5.72L524.78-5.72Q517.61-13.21 517.50-26.00L517.50-26.00L517.50-26.00Q517.61-39.10 525.04-46.44L525.04-46.44L525.04-46.44Q532.48-53.77 543.40-53.77L543.40-53.77L543.40-53.77Q552.24-53.77 556.87-47.79L556.87-47.79L556.87-47.79Q561.50-41.81 561.50-31.62L561.50-31.62L561.50-31.62Q561.50-29.85 561.39-28.91L561.39-28.91L559.94-27.77ZM543.30-49.30L543.30-49.30L543.30-49.30Q538.41-49.30 534.30-44.88L534.30-44.88L534.30-44.88Q530.19-40.46 528.94-32.34L528.94-32.34L551.62-33.59L551.62-33.59Q551.62-41.91 549.80-45.60L549.80-45.60L549.80-45.60Q547.98-49.30 543.30-49.30ZM586.04-35.05L586.04-35.05L586.04-5.20L596.13-3.12L596.13-3.12Q596.44-1.14 595.61 0.52L595.61 0.52L595.61 0.52Q586.25 0 580.84 0L580.84 0L580.84 0Q576.68 0 568.15 0.52L568.15 0.52L568.15 0.52Q567.84-1.46 568.36-3.12L568.36-3.12L568.36-3.12Q574.18-4.37 575.64-5.20L575.64-5.20L575.64-45.76L567.01-46.59L567.01-46.59Q566.70-48.67 567.53-50.23L567.53-50.23L567.53-50.23Q576.16-51.48 582.09-53.04L582.09-53.04L582.09-53.04Q583.23-53.04 585.52-51.90L585.52-51.90L585.52-42.43L585.62-42.33L585.62-42.33Q593.32-53.77 601.43-53.77L601.43-53.77L601.43-53.77Q605.59-53.87 608.30-52.21L608.30-52.21L608.30-52.21Q608.61-44.51 606.22-36.61L606.22-36.61L606.22-36.61Q603.62-36.30 601.54-37.02L601.54-37.02L600.08-47.42L600.08-47.42Q591.45-47.42 586.04-35.05ZM621.61 27.98L621.61 27.98L621.61 27.98Q616.41 20.28 615.68 14.66L615.68 14.66L615.68 14.66Q617.66 13.31 619.63 13.21L619.63 13.21L626.29 21.01L626.29 21.01Q632.11 15.29 637.62 0.42L637.62 0.42L618.70-46.80L610.69-48.88L610.69-48.88Q610.38-50.86 611.21-52.52L611.21-52.52L611.21-52.52Q620.57-52.00 623.48-52.00L623.48-52.00L623.48-52.00Q626.70-52.00 636.38-52.52L636.38-52.52L636.38-52.52Q636.69-50.54 636.17-48.88L636.17-48.88L636.17-48.88Q630.24-47.63 628.99-46.80L628.99-46.80L637.62-25.90L637.62-25.90Q641.99-15.39 642.93-9.78L642.93-9.78L643.24-9.78L643.24-9.78Q643.34-10.19 643.97-12.84L643.97-12.84L643.97-12.84Q644.59-15.50 645.32-17.99L645.32-17.99L645.32-17.99Q646.05-20.49 647.30-23.61L647.30-23.61L656.14-46.80L648.96-48.88L648.96-48.88Q648.65-50.86 649.48-52.52L649.48-52.52L649.48-52.52Q656.45-52.00 659.67-52.00L659.67-52.00L659.67-52.00Q663.31-52.00 669.76-52.52L669.76-52.52L669.76-52.52Q670.07-50.54 669.55-48.88L669.55-48.88L669.55-48.88Q663.52-47.63 662.38-46.80L662.38-46.80L641.99 4.89L641.99 4.89Q637.73 15.70 632.32 21.89L632.32 21.89L632.32 21.89Q626.91 28.08 621.61 27.98Z" fill="#fff"></path></g></g><style>text {
  font-size: 64px;
  font-family: Arial Black;
  dominant-baseline: central;
  text-anchor: middle;
}</style></svg>